<svg xmlns="http://www.w3.org/2000/svg" version="1.1" xmlns:xlink="http://www.w3.org/1999/xlink" xmlns:svgjs="http://svgjs.dev/svgjs" width="1500" height="500" viewBox="0 0 1500 1500"><g transform="matrix(0.6666666666666666,0,0,0.6666666666666666,249.39393939393938,582.9105061628219)"><svg viewBox="0 0 396 132" data-background-color="#091f5b" preserveAspectRatio="xMidYMid meet" height="500" width="1500" xmlns="http://www.w3.org/2000/svg" xmlns:xlink="http://www.w3.org/1999/xlink"><g id="tight-bounds" transform="matrix(1,0,0,1,0.2400000000000091,0.16743955952256329)"><svg viewBox="0 0 395.52 131.6651208809549" height="131.6651208809549" width="395.52"><g><svg viewBox="0 0 677.138366152826 225.41339207282604" height="131.6651208809549" width="395.52"><g transform="matrix(1,0,0,1,0,53.186696036413025)"><svg viewBox="0 0 395.52 119.03999999999999" height="119.03999999999999" width="395.52"><g id="textblocktransform"><svg viewBox="0 0 395.52 119.03999999999999" height="119.03999999999999" width="395.52" id="textblock"><g><svg viewBox="0 0 395.52 119.03999999999999" height="119.03999999999999" width="395.52"><g transform="matrix(1,0,0,1,0,0)"><svg width="395.52" viewBox="3.9 -35 121.53999999999999 35.65" height="119.03999999999999" data-palette-color="#fff9ef"><g class="wordmark-text-0" data-fill-palette-color="primary" id="text-0"><path d="M3.9 0L3.9-35 6.7-35 6.7 0 3.9 0ZM31.8 0Q26.4 0.55 24 0.55L24 0.55Q18.75 0.55 15.65-1.4 12.55-3.35 12.55-8.45L12.55-8.45 12.55-12.6Q12.55-17.55 16-19.25L16-19.25Q17.65-20.1 20.2-20.1L20.2-20.1Q22.55-20.1 24.95-19.33 27.35-18.55 29-17.3L29-17.3Q29-20.05 27.4-21.68 25.8-23.3 21.25-23.3L21.25-23.3 21.4-25.45Q26.2-25.45 28.47-23.93 30.75-22.4 31.27-20.3 31.8-18.2 31.8-14.9L31.8-14.9 31.8 0ZM29-15.15Q26.95-16.1 24.62-16.8 22.3-17.5 20.35-17.5L20.35-17.5Q15.3-17.5 15.3-12.45L15.3-12.45 15.3-8.1Q15.3-4.85 17.55-3.38 19.8-1.9 23.95-1.9L23.95-1.9Q26.1-1.9 29-2.3L29-2.3 29-15.15ZM56.15 0L51.1-20.25 46 0 42.15 0 34.5-25.05 37.45-25.05 44.1-2.9 49.75-25.05 52.6-25.05 58.1-2.9 64.8-25.05 67.75-25.05 60 0 56.15 0ZM76.29 0.65Q73.49-0.15 72.24-1.9 70.99-3.65 70.99-6.6L70.99-6.6 70.99-35 73.79-35 73.79-25.05 79.79-25.05 78.59-22.4 73.79-22.4 73.79-6.6Q73.79-2.6 77.09-1.5L77.09-1.5 76.29 0.65ZM99.44-1.75Q97.64-0.6 95.34 0 93.04 0.6 90.74 0.6L90.74 0.6Q87.04 0.6 84.87-1.23 82.69-3.05 82.69-6.7L82.69-6.7 82.69-16.95Q82.69-21 85.22-23.25 87.74-25.5 91.89-25.5L91.89-25.5Q96.04-25.5 98.37-23.28 100.69-21.05 100.69-17.1L100.69-17.1 100.69-10.6 85.49-9.75 85.49-6.7Q85.49-4.3 87.04-3.1 88.59-1.9 91.09-1.9L91.09-1.9Q94.59-1.9 98.34-3.9L98.34-3.9 99.44-1.75ZM97.89-17.45Q97.89-20.55 95.94-21.83 93.99-23.1 91.84-23.1L91.84-23.1Q89.09-23.1 87.29-21.6 85.49-20.1 85.49-16.9L85.49-16.9 85.49-12.5 97.89-13.1 97.89-17.45ZM122.14 0L115.99-9.85 109.84 0 106.54 0 114.34-12.45 106.54-25.05 109.69-25.05 115.99-15.05 122.29-25.05 125.44-25.05 117.59-12.45 125.44 0 122.14 0Z" fill="#091F5B" data-fill-palette-color="primary"></path></g></svg></g></svg></g></svg></g></svg></g><g transform="matrix(1,0,0,1,451.72497408,0)"><svg viewBox="0 0 225.41339207282604 225.41339207282604" height="225.41339207282604" width="225.41339207282604"><g><svg></svg></g><g id="icon-0"><svg viewBox="0 0 225.41339207282604 225.41339207282604" height="225.41339207282604" width="225.41339207282604"><g><path d="M0 112.707c0-62.246 50.461-112.707 112.707-112.707 62.246 0 112.707 50.461 112.706 112.707 0 62.246-50.461 112.707-112.706 112.706-62.246 0-112.707-50.461-112.707-112.706zM112.707 214.678c56.317 0 101.972-45.654 101.971-101.971 0-56.317-45.654-101.972-101.971-101.972-56.317 0-101.972 45.654-101.972 101.972 0 56.317 45.654 101.972 101.972 101.971z" data-fill-palette-color="accent" fill="#091F5B" stroke="transparent"></path></g><g transform="matrix(1,0,0,1,68.5281597170667,49.2438779903679)"><svg viewBox="0 0 88.35707263869266 126.92563609209024" height="126.92563609209024" width="88.35707263869266"><g><svg xmlns="http://www.w3.org/2000/svg" xmlns:xlink="http://www.w3.org/1999/xlink" version="1.1" x="0" y="0" viewBox="18.5 4.5 63 90.5" enable-background="new 0 0 100 100" xml:space="preserve" height="126.92563609209024" width="88.35707263869266" class="icon-cg-0" data-fill-palette-color="accent" id="cg-0"><g fill="#091F5B" data-fill-palette-color="accent"><path d="M80 77H30c-0.829 0-1.5 0.672-1.5 1.5S29.171 80 30 80h50c0.828 0 1.5-0.672 1.5-1.5S80.828 77 80 77z" fill="#091F5B" data-fill-palette-color="accent"></path><path d="M80 82H27.5c-0.829 0-1.5 0.672-1.5 1.5s0.671 1.5 1.5 1.5H80c0.828 0 1.5-0.672 1.5-1.5S80.828 82 80 82z" fill="#091F5B" data-fill-palette-color="accent"></path><path d="M80 87H30c-0.829 0-1.5 0.672-1.5 1.5S29.171 90 30 90h50c0.828 0 1.5-0.672 1.5-1.5S80.828 87 80 87z" fill="#091F5B" data-fill-palette-color="accent"></path><g fill="#edf0f5" data-fill-palette-color="accent"><path d="M46.75 40.25c0 1.93 1.57 3.5 3.5 3.5s3.5-1.57 3.5-3.5-1.57-3.5-3.5-3.5S46.75 38.32 46.75 40.25z" fill="#091F5B" data-fill-palette-color="accent"></path><path d="M30 75h50 1.5V4.5h-63v78h0.051c-0.029 0.33-0.051 0.662-0.051 1C18.5 89.841 23.659 95 30 95h50c0.828 0 1.5-0.672 1.5-1.5S80.828 92 80 92H30c-4.687 0-8.5-3.813-8.5-8.5S25.313 75 30 75zM43.75 30.25c0-3.584 2.916-6.5 6.5-6.5h3.333c0.828 0 1.5 0.672 1.5 1.5s-0.672 1.5-1.5 1.5H50.25c-1.93 0-3.5 1.57-3.5 3.5s1.57 3.5 3.5 3.5c3.584 0 6.5 2.916 6.5 6.5 0 2.009-0.917 3.807-2.353 5 1.436 1.193 2.353 2.991 2.353 5 0 3.584-2.916 6.5-6.5 6.5h-3.334c-0.828 0-1.5-0.672-1.5-1.5s0.672-1.5 1.5-1.5h3.334c1.93 0 3.5-1.57 3.5-3.5s-1.57-3.5-3.5-3.5c-3.584 0-6.5-2.916-6.5-6.5 0-2.009 0.917-3.807 2.353-5C44.667 34.057 43.75 32.259 43.75 30.25z" fill="#091F5B" data-fill-palette-color="accent"></path></g></g></svg></g></svg></g></svg></g></svg></g></svg></g><defs></defs></svg><rect width="395.52" height="131.6651208809549" fill="none" stroke="none" visibility="hidden"></rect></g></svg></g></svg>
