<svg xmlns="http://www.w3.org/2000/svg" version="1.1" xmlns:xlink="http://www.w3.org/1999/xlink" xmlns:svgjs="http://svgjs.dev/svgjs" width="128" height="128" viewBox="0 0 128 128"><g transform="matrix(0.5597826086956522,0,0,0.5597826086956522,28.427646670888556,12.760752631578946)"><svg viewBox="0 0 66 95" data-background-color="#091f5b" preserveAspectRatio="xMidYMid meet" height="184" width="128" xmlns="http://www.w3.org/2000/svg" xmlns:xlink="http://www.w3.org/1999/xlink"><g id="tight-bounds" transform="matrix(1,0,0,1,-0.23371823204419684,-0.24049999999999727)"><svg viewBox="0 0 66.4674364640884 95.48100000000001" height="95.48100000000001" width="66.4674364640884"><g><svg viewBox="0 0 66.4674364640884 95.48100000000001" height="95.48100000000001" width="66.4674364640884"><g><svg viewBox="0 0 66.4674364640884 95.48100000000001" height="95.48100000000001" width="66.4674364640884"><g id="textblocktransform"><svg viewBox="0 0 66.4674364640884 95.48100000000001" height="95.48100000000001" width="66.4674364640884" id="textblock"><g><svg viewBox="0 0 66.4674364640884 95.48100000000001" height="95.48100000000001" width="66.4674364640884"><g><svg viewBox="0 0 66.4674364640884 95.48100000000001" height="95.48100000000001" width="66.4674364640884"><g><svg xmlns="http://www.w3.org/2000/svg" xmlns:xlink="http://www.w3.org/1999/xlink" version="1.1" x="0" y="0" viewBox="18.5 4.5 63 90.5" enable-background="new 0 0 100 100" xml:space="preserve" height="95.48100000000001" width="66.4674364640884" class="icon-icon-0" data-fill-palette-color="accent" id="icon-0"><g fill="#edf0f5" data-fill-palette-color="accent"><path d="M80 77H30c-0.829 0-1.5 0.672-1.5 1.5S29.171 80 30 80h50c0.828 0 1.5-0.672 1.5-1.5S80.828 77 80 77z" fill="#ffffff" data-fill-palette-color="accent"></path><path d="M80 82H27.5c-0.829 0-1.5 0.672-1.5 1.5s0.671 1.5 1.5 1.5H80c0.828 0 1.5-0.672 1.5-1.5S80.828 82 80 82z" fill="#ffffff" data-fill-palette-color="accent"></path><path d="M80 87H30c-0.829 0-1.5 0.672-1.5 1.5S29.171 90 30 90h50c0.828 0 1.5-0.672 1.5-1.5S80.828 87 80 87z" fill="#ffffff" data-fill-palette-color="accent"></path><g fill="#edf0f5" data-fill-palette-color="accent"><path d="M46.75 40.25c0 1.93 1.57 3.5 3.5 3.5s3.5-1.57 3.5-3.5-1.57-3.5-3.5-3.5S46.75 38.32 46.75 40.25z" fill="#ffffff" data-fill-palette-color="accent"></path><path d="M30 75h50 1.5V4.5h-63v78h0.051c-0.029 0.33-0.051 0.662-0.051 1C18.5 89.841 23.659 95 30 95h50c0.828 0 1.5-0.672 1.5-1.5S80.828 92 80 92H30c-4.687 0-8.5-3.813-8.5-8.5S25.313 75 30 75zM43.75 30.25c0-3.584 2.916-6.5 6.5-6.5h3.333c0.828 0 1.5 0.672 1.5 1.5s-0.672 1.5-1.5 1.5H50.25c-1.93 0-3.5 1.57-3.5 3.5s1.57 3.5 3.5 3.5c3.584 0 6.5 2.916 6.5 6.5 0 2.009-0.917 3.807-2.353 5 1.436 1.193 2.353 2.991 2.353 5 0 3.584-2.916 6.5-6.5 6.5h-3.334c-0.828 0-1.5-0.672-1.5-1.5s0.672-1.5 1.5-1.5h3.334c1.93 0 3.5-1.57 3.5-3.5s-1.57-3.5-3.5-3.5c-3.584 0-6.5-2.916-6.5-6.5 0-2.009 0.917-3.807 2.353-5C44.667 34.057 43.75 32.259 43.75 30.25z" fill="#ffffff" data-fill-palette-color="accent"></path></g></g></svg></g></svg></g></svg></g></svg></g></svg></g></svg></g><defs></defs></svg><rect width="66.4674364640884" height="95.48100000000001" fill="none" stroke="none" visibility="hidden"></rect></g></svg></g></svg>